<?xml version="1.0" encoding="UTF-8" standalone="no"?>
<svg
   width="512"
   height="512"
   viewBox="0 0 512 512"
   role="img"
   aria-labelledby="title desc"
   version="1.1"
   id="svg9"
   sodipodi:docname="CatalogaBR01.svg"
   inkscape:version="1.4.4 (dcaf3e7, 2026-05-05)"
   inkscape:export-filename="CatalogaBR01.png"
   inkscape:export-xdpi="96"
   inkscape:export-ydpi="96"
   xmlns:inkscape="http://www.inkscape.org/namespaces/inkscape"
   xmlns:sodipodi="http://sodipodi.sourceforge.net/DTD/sodipodi-0.dtd"
   xmlns="http://www.w3.org/2000/svg"
   xmlns:svg="http://www.w3.org/2000/svg"
   xmlns:rdf="http://www.w3.org/1999/02/22-rdf-syntax-ns#"
   xmlns:cc="http://creativecommons.org/ns#"
   xmlns:dc="http://purl.org/dc/elements/1.1/">
  <defs
     id="defs9" />
  <sodipodi:namedview
     id="namedview9"
     pagecolor="#ffffff"
     bordercolor="#000000"
     borderopacity="0.25"
     inkscape:showpageshadow="2"
     inkscape:pageopacity="0.0"
     inkscape:pagecheckerboard="0"
     inkscape:deskcolor="#d1d1d1"
     inkscape:zoom="0.3600352"
     inkscape:cx="437.45722"
     inkscape:cy="609.66261"
     inkscape:window-width="1366"
     inkscape:window-height="715"
     inkscape:window-x="-8"
     inkscape:window-y="-8"
     inkscape:window-maximized="1"
     inkscape:current-layer="svg9" />
  <title
     id="title">Logo CatalogaBR</title>
  <desc
     id="desc">Símbolo de leitura de código de barras em verde e amarelo ao lado do nome CatalogaBR.</desc>
  <rect
     style="fill:#c6e9af;stroke-width:0"
     id="rect9"
     width="512"
     height="512"
     x="0"
     y="0"
     rx="0"
     ry="0" />
  <!-- Símbolo -->
  <g
     id="g9"
     transform="matrix(1.3583879,0,0,1.3583879,11.490178,11.490178)">
    <g
       transform="translate(56,56)"
       id="g8">
      <rect
         width="248"
         height="248"
         rx="56"
         fill="#126b45"
         id="rect1"
         x="0"
         y="0" />
      <!-- Cantos do leitor -->
      <path
         d="M 48,94 V 64 c 0,-9 7,-16 16,-16 h 30 m 60,0 h 30 c 9,0 16,7 16,16 v 30 m 0,60 v 30 c 0,9 -7,16 -16,16 h -30 m -60,0 H 64 c -9,0 -16,-7 -16,-16 v -30"
         fill="none"
         stroke="#ffcc29"
         stroke-width="14"
         stroke-linecap="round"
         id="path1" />
      <!-- Código de barras -->
      <g
         fill="#ffffff"
         id="g7">
        <rect
           x="76"
           y="84"
           width="10"
           height="80"
           rx="3"
           id="rect2" />
        <rect
           x="94"
           y="84"
           width="6"
           height="80"
           rx="3"
           id="rect3" />
        <rect
           x="108"
           y="84"
           width="14"
           height="80"
           rx="3"
           id="rect4" />
        <rect
           x="130"
           y="84"
           width="7"
           height="80"
           rx="3"
           id="rect5" />
        <rect
           x="145"
           y="84"
           width="11"
           height="80"
           rx="3"
           id="rect6" />
        <rect
           x="164"
           y="84"
           width="7"
           height="80"
           rx="3"
           id="rect7" />
      </g>
      <circle
         cx="124"
         cy="184"
         r="6"
         fill="#ffcc29"
         id="circle7" />
    </g>
  </g>
  <!-- Nome -->
  <metadata
     id="metadata9">
    <rdf:RDF>
      <cc:Work
         rdf:about="">
        <dc:title>Logo CatalogaBR</dc:title>
      </cc:Work>
    </rdf:RDF>
  </metadata>
</svg>
